<svg width="318" height="318" viewBox="0 0 318 318" fill="none" xmlns="http://www.w3.org/2000/svg">
<g clip-path="url(#clip0_210_5)">
<rect x="0.192627" width="317.807" height="317.807" rx="19.5909" fill="#FDCF50"/>
<rect width="148.297" height="220.323" rx="6.53029" transform="matrix(0.866025 -0.5 0 1 185.217 97.0046)" fill="#EDB009"/>
<rect width="115.352" height="191.555" rx="6.53029" transform="matrix(0.866025 0.5 -0.866025 0.5 254.243 -28.298)" fill="#F0C85A"/>
<rect width="117.545" height="191.555" rx="6.53029" transform="matrix(0.866025 0.5 0 1 88.3511 63.1261)" fill="#FFE9AD"/>
<path d="M181.328 248.317C181.328 275.786 162.044 286.92 138.256 273.186C114.467 259.452 95.183 226.05 95.183 198.581C95.183 171.113 114.467 159.978 138.256 173.713C162.044 187.447 181.328 220.848 181.328 248.317Z" fill="#F47797" stroke="#DF8DA2" stroke-width="3.39114"/>
<ellipse cx="15.8251" cy="15.8253" rx="15.8251" ry="15.8253" transform="matrix(0.866025 0.5 0 1 125.04 200.559)" fill="#F09BB1"/>
<g filter="url(#filter0_d_210_5)">
<path d="M160.771 237.014C160.771 251.06 150.909 256.754 138.745 249.731C126.58 242.708 116.719 225.627 116.719 211.581C116.719 197.534 126.58 191.84 138.745 198.864C150.909 205.887 160.771 222.967 160.771 237.014Z" stroke="#DF8DA2" stroke-width="1.13038" shape-rendering="crispEdges"/>
</g>
<g filter="url(#filter1_d_210_5)">
<path d="M170.56 242.666C170.56 262.955 156.316 271.179 138.745 261.035C121.174 250.89 106.93 226.218 106.93 205.929C106.93 185.639 121.174 177.415 138.745 187.56C156.316 197.704 170.56 222.376 170.56 242.666Z" stroke="#DF8DA2" stroke-width="1.13038" shape-rendering="crispEdges"/>
</g>
<path d="M158.758 145.151C158.758 161.083 147.573 167.541 133.776 159.575C119.979 151.609 108.794 132.237 108.794 116.305C108.794 100.373 119.979 93.9148 133.776 101.881C147.573 109.846 158.758 129.219 158.758 145.151Z" fill="#F47797" stroke="#DF8DA2" stroke-width="1.96686"/>
<ellipse cx="9.17854" cy="9.1787" rx="9.17854" ry="9.1787" transform="matrix(0.866025 0.5 0 1 126.111 117.452)" fill="#F09BB1"/>
<g filter="url(#filter2_d_210_5)">
<path d="M146.835 138.595C146.835 146.742 141.115 150.045 134.06 145.971C127.005 141.898 121.285 131.991 121.285 123.844C121.285 115.697 127.005 112.395 134.06 116.468C141.115 120.542 146.835 130.448 146.835 138.595Z" stroke="#DF8DA2" stroke-width="0.655621" shape-rendering="crispEdges"/>
</g>
<g filter="url(#filter3_d_210_5)">
<path d="M152.513 141.874C152.513 153.641 144.251 158.411 134.06 152.528C123.869 146.644 115.608 132.334 115.608 120.566C115.608 108.798 123.869 104.028 134.06 109.912C144.251 115.796 152.513 130.106 152.513 141.874Z" stroke="#DF8DA2" stroke-width="0.655621" shape-rendering="crispEdges"/>
</g>
<path d="M23.1052 24.5122C23.1052 23.8229 23.2568 23.2094 23.5601 22.6717C23.8634 22.1341 24.2701 21.7136 24.7802 21.4103C25.8004 20.8037 26.8688 20.5004 27.9855 20.5004C29.4744 20.5004 30.6945 20.8519 31.6457 21.555C32.6107 22.2443 33.0864 23.237 33.0726 24.5329C33.0312 26.2423 32.1696 27.4486 30.4877 28.1517C31.3976 28.3309 32.1351 28.7307 32.7004 29.3511C33.2656 29.9715 33.5482 30.7228 33.5482 31.6052C33.5482 33.1492 32.9554 34.3072 31.7698 35.0793C30.5842 35.8513 29.2193 36.2373 27.6753 36.2373C25.0146 36.2373 22.988 35.2861 21.5956 33.3836L23.6015 31.5224C23.9186 32.2255 24.47 32.8459 25.2558 33.3836C26.0692 33.935 26.8619 34.2107 27.6339 34.2107C28.4198 34.2107 29.0539 33.9764 29.5364 33.5076C30.0189 33.0251 30.2602 32.4323 30.2602 31.7292C30.2602 31.2881 30.143 30.9021 29.9087 30.5712C29.3159 29.7716 28.144 29.3718 26.3932 29.3718C26.3105 29.3718 26.2278 29.3718 26.145 29.3718H24.8836L25.049 27.49C26.0554 27.49 26.8964 27.4555 27.5719 27.3866C28.2612 27.3177 28.854 27.0695 29.3503 26.6421C29.888 26.1596 30.1568 25.5048 30.1568 24.6776C30.1568 24.0986 29.95 23.5885 29.5364 23.1473C29.1366 22.6924 28.5507 22.458 27.7787 22.4442C27.1307 22.4718 26.6482 22.6717 26.3311 23.0439C26.0279 23.4024 25.8762 23.7815 25.8762 24.1813C25.8762 24.5811 25.9176 24.9051 26.0003 25.1532H23.1465C23.119 24.8775 23.1052 24.6638 23.1052 24.5122ZM37.0265 33.7558C37.3574 33.4249 37.7572 33.2595 38.2259 33.2595C38.6946 33.2595 39.0944 33.4249 39.4253 33.7558C39.7562 34.0867 39.9216 34.4865 39.9216 34.9552C39.9216 35.4239 39.7562 35.8237 39.4253 36.1546C39.0944 36.4717 38.6946 36.6302 38.2259 36.6302C37.7572 36.6302 37.3574 36.4717 37.0265 36.1546C36.7094 35.8237 36.5509 35.4239 36.5509 34.9552C36.5509 34.4865 36.7094 34.0867 37.0265 33.7558Z" fill="#EC577D"/>
<path d="M76.1219 73.0826L71.5463 75.1749M71.1244 61.2597L75.8151 62.9628M80.778 51L82.8361 55.5008" stroke="#F09BB1" stroke-width="3.78496" stroke-linecap="round" stroke-linejoin="round"/>
</g>
<rect x="4.54615" y="4.35353" width="309.1" height="309.1" rx="15.2373" stroke="#FDF8E9" stroke-width="8.70705"/>
<defs>
<filter id="filter0_d_210_5" x="111.172" y="185.812" width="59.4994" height="72.6165" filterUnits="userSpaceOnUse" color-interpolation-filters="sRGB">
<feFlood flood-opacity="0" result="BackgroundImageFix"/>
<feColorMatrix in="SourceAlpha" type="matrix" values="0 0 0 0 0 0 0 0 0 0 0 0 0 0 0 0 0 0 127 0" result="hardAlpha"/>
<feMorphology radius="1.13038" operator="dilate" in="SourceAlpha" result="effect1_dropShadow_210_5"/>
<feOffset dx="2.17676" dy="-2.17676"/>
<feGaussianBlur stdDeviation="3.05203"/>
<feComposite in2="hardAlpha" operator="out"/>
<feColorMatrix type="matrix" values="0 0 0 0 0.82691 0 0 0 0 0.0897569 0 0 0 0 0.277756 0 0 0 1 0"/>
<feBlend mode="normal" in2="BackgroundImageFix" result="effect1_dropShadow_210_5"/>
<feBlend mode="normal" in="SourceGraphic" in2="effect1_dropShadow_210_5" result="shape"/>
</filter>
<filter id="filter1_d_210_5" x="101.383" y="173.171" width="79.0775" height="97.898" filterUnits="userSpaceOnUse" color-interpolation-filters="sRGB">
<feFlood flood-opacity="0" result="BackgroundImageFix"/>
<feColorMatrix in="SourceAlpha" type="matrix" values="0 0 0 0 0 0 0 0 0 0 0 0 0 0 0 0 0 0 127 0" result="hardAlpha"/>
<feMorphology radius="1.13038" operator="dilate" in="SourceAlpha" result="effect1_dropShadow_210_5"/>
<feOffset dx="2.17676" dy="-2.17676"/>
<feGaussianBlur stdDeviation="3.05203"/>
<feComposite in2="hardAlpha" operator="out"/>
<feColorMatrix type="matrix" values="0 0 0 0 0.82691 0 0 0 0 0.0897569 0 0 0 0 0.277756 0 0 0 1 0"/>
<feBlend mode="normal" in2="BackgroundImageFix" result="effect1_dropShadow_210_5"/>
<feBlend mode="normal" in="SourceGraphic" in2="effect1_dropShadow_210_5" result="shape"/>
</filter>
<filter id="filter2_d_210_5" x="115.944" y="104.946" width="40.5863" height="48.1945" filterUnits="userSpaceOnUse" color-interpolation-filters="sRGB">
<feFlood flood-opacity="0" result="BackgroundImageFix"/>
<feColorMatrix in="SourceAlpha" type="matrix" values="0 0 0 0 0 0 0 0 0 0 0 0 0 0 0 0 0 0 127 0" result="hardAlpha"/>
<feMorphology radius="1.13038" operator="dilate" in="SourceAlpha" result="effect1_dropShadow_210_5"/>
<feOffset dx="2.17676" dy="-2.17676"/>
<feGaussianBlur stdDeviation="3.05203"/>
<feComposite in2="hardAlpha" operator="out"/>
<feColorMatrix type="matrix" values="0 0 0 0 0.82691 0 0 0 0 0.0897569 0 0 0 0 0.277756 0 0 0 1 0"/>
<feBlend mode="normal" in2="BackgroundImageFix" result="effect1_dropShadow_210_5"/>
<feBlend mode="normal" in="SourceGraphic" in2="effect1_dropShadow_210_5" result="shape"/>
</filter>
<filter id="filter3_d_210_5" x="110.266" y="97.6143" width="51.942" height="62.8577" filterUnits="userSpaceOnUse" color-interpolation-filters="sRGB">
<feFlood flood-opacity="0" result="BackgroundImageFix"/>
<feColorMatrix in="SourceAlpha" type="matrix" values="0 0 0 0 0 0 0 0 0 0 0 0 0 0 0 0 0 0 127 0" result="hardAlpha"/>
<feMorphology radius="1.13038" operator="dilate" in="SourceAlpha" result="effect1_dropShadow_210_5"/>
<feOffset dx="2.17676" dy="-2.17676"/>
<feGaussianBlur stdDeviation="3.05203"/>
<feComposite in2="hardAlpha" operator="out"/>
<feColorMatrix type="matrix" values="0 0 0 0 0.82691 0 0 0 0 0.0897569 0 0 0 0 0.277756 0 0 0 1 0"/>
<feBlend mode="normal" in2="BackgroundImageFix" result="effect1_dropShadow_210_5"/>
<feBlend mode="normal" in="SourceGraphic" in2="effect1_dropShadow_210_5" result="shape"/>
</filter>
<clipPath id="clip0_210_5">
<rect x="0.192627" width="317.807" height="317.807" rx="19.5909" fill="white"/>
</clipPath>
</defs>
</svg>
