<svg width="318" height="318" viewBox="0 0 318 318" fill="none" xmlns="http://www.w3.org/2000/svg">
<g clip-path="url(#clip0_210_3)">
<rect width="317.807" height="317.807" rx="19.5909" fill="#FDCF50"/>
<mask id="path-3-outside-1_210_3" maskUnits="userSpaceOnUse" x="100.661" y="97.9543" width="226" height="220" fill="black">
<rect fill="white" x="100.661" y="97.9543" width="226" height="220"/>
<path d="M106.661 115.368C106.661 105.751 114.458 97.9543 124.075 97.9543H309.1C318.718 97.9543 326.514 105.751 326.514 115.368V300.393C326.514 310.011 318.718 317.807 309.1 317.807H124.075C114.458 317.807 106.661 310.011 106.661 300.393V115.368Z"/>
</mask>
<path d="M106.661 115.368C106.661 105.751 114.458 97.9543 124.075 97.9543H309.1C318.718 97.9543 326.514 105.751 326.514 115.368V300.393C326.514 310.011 318.718 317.807 309.1 317.807H124.075C114.458 317.807 106.661 310.011 106.661 300.393V115.368Z" fill="#FFE9AD"/>
<path d="M106.661 97.9543H326.514H106.661ZM326.514 317.807H106.661H326.514ZM124.075 317.807C111.452 317.807 101.219 307.574 101.219 294.951V120.81C101.219 108.187 111.452 97.9543 124.075 97.9543H124.075C117.463 97.9543 112.103 105.751 112.103 115.368V300.393C112.103 310.011 117.463 317.807 124.075 317.807H124.075ZM326.514 97.9543V317.807V97.9543Z" fill="#E2A708" mask="url(#path-3-outside-1_210_3)"/>
<path d="M125.164 155.638C125.164 154.436 126.138 153.462 127.341 153.462H150.197C151.399 153.462 152.373 154.436 152.373 155.638V309.1C152.373 310.302 151.399 311.277 150.197 311.277H127.341C126.138 311.277 125.164 310.302 125.164 309.1V155.638Z" fill="#FFF2F5"/>
<path d="M125.164 153.462H152.373H125.164ZM152.918 309.1C152.918 310.603 151.699 311.821 150.197 311.821H127.341C125.838 311.821 124.62 310.603 124.62 309.1H125.708C125.708 310.002 126.439 310.733 127.341 310.733H150.197C151.098 310.733 151.829 310.002 151.829 309.1H152.918ZM127.341 311.821C125.838 311.821 124.62 310.603 124.62 309.1V156.183C124.62 154.68 125.838 153.462 127.341 153.462C126.439 153.462 125.708 154.436 125.708 155.638V309.1C125.708 310.002 126.439 310.733 127.341 310.733V311.821ZM150.197 153.462C151.699 153.462 152.918 154.68 152.918 156.183V309.1C152.918 310.603 151.699 311.821 150.197 311.821V310.733C151.098 310.733 151.829 310.002 151.829 309.1V155.638C151.829 154.436 151.098 153.462 150.197 153.462Z" fill="#EC577D"/>
<path d="M179.583 155.638C179.583 154.436 180.558 153.462 181.76 153.462H204.616C205.818 153.462 206.793 154.436 206.793 155.638V309.1C206.793 310.302 205.818 311.277 204.616 311.277H181.76C180.558 311.277 179.583 310.302 179.583 309.1V155.638Z" fill="#FFF2F5"/>
<path d="M179.583 153.462H206.793H179.583ZM207.337 309.1C207.337 310.603 206.119 311.821 204.616 311.821H181.76C180.257 311.821 179.039 310.603 179.039 309.1H180.127C180.127 310.002 180.858 310.733 181.76 310.733H204.616C205.517 310.733 206.248 310.002 206.248 309.1H207.337ZM181.76 311.821C180.257 311.821 179.039 310.603 179.039 309.1V156.183C179.039 154.68 180.257 153.462 181.76 153.462C180.858 153.462 180.127 154.436 180.127 155.638V309.1C180.127 310.002 180.858 310.733 181.76 310.733V311.821ZM204.616 153.462C206.119 153.462 207.337 154.68 207.337 156.183V309.1C207.337 310.603 206.119 311.821 204.616 311.821V310.733C205.517 310.733 206.248 310.002 206.248 309.1V155.638C206.248 154.436 205.517 153.462 204.616 153.462Z" fill="#EC577D"/>
<path d="M152.373 155.638C152.373 154.436 153.348 153.462 154.55 153.462H177.406C178.608 153.462 179.583 154.436 179.583 155.638V309.1C179.583 310.302 178.608 311.277 177.406 311.277H154.55C153.348 311.277 152.373 310.302 152.373 309.1V155.638Z" fill="#FFF2F5"/>
<path d="M152.373 153.462H179.583H152.373ZM180.127 309.1C180.127 310.603 178.909 311.821 177.406 311.821H154.55C153.047 311.821 151.829 310.603 151.829 309.1H152.917C152.917 310.002 153.648 310.733 154.55 310.733H177.406C178.308 310.733 179.039 310.002 179.039 309.1H180.127ZM154.55 311.821C153.047 311.821 151.829 310.603 151.829 309.1V156.183C151.829 154.68 153.047 153.462 154.55 153.462C153.648 153.462 152.917 154.436 152.917 155.638V309.1C152.917 310.002 153.648 310.733 154.55 310.733V311.821ZM177.406 153.462C178.909 153.462 180.127 154.68 180.127 156.183V309.1C180.127 310.603 178.909 311.821 177.406 311.821V310.733C178.308 310.733 179.039 310.002 179.039 309.1V155.638C179.039 154.436 178.308 153.462 177.406 153.462Z" fill="#EC577D"/>
<path d="M206.792 155.638C206.792 154.436 207.767 153.462 208.969 153.462H231.825C233.027 153.462 234.002 154.436 234.002 155.638V309.1C234.002 310.302 233.027 311.277 231.825 311.277H208.969C207.767 311.277 206.792 310.302 206.792 309.1V155.638Z" fill="#FFF2F5"/>
<path d="M206.792 153.462H234.002H206.792ZM234.546 309.1C234.546 310.603 233.328 311.821 231.825 311.821H208.969C207.467 311.821 206.248 310.603 206.248 309.1H207.337C207.337 310.002 208.068 310.733 208.969 310.733H231.825C232.727 310.733 233.458 310.002 233.458 309.1H234.546ZM208.969 311.821C207.467 311.821 206.248 310.603 206.248 309.1V156.183C206.248 154.68 207.467 153.462 208.969 153.462C208.068 153.462 207.337 154.436 207.337 155.638V309.1C207.337 310.002 208.068 310.733 208.969 310.733V311.821ZM231.825 153.462C233.328 153.462 234.546 154.68 234.546 156.183V309.1C234.546 310.603 233.328 311.821 231.825 311.821V310.733C232.727 310.733 233.458 310.002 233.458 309.1V155.638C233.458 154.436 232.727 153.462 231.825 153.462Z" fill="#EC577D"/>
<path d="M234.002 155.638C234.002 154.436 234.977 153.462 236.179 153.462H259.035C260.237 153.462 261.211 154.436 261.211 155.638V309.1C261.211 310.302 260.237 311.277 259.035 311.277H236.179C234.977 311.277 234.002 310.302 234.002 309.1V155.638Z" fill="#FFF2F5"/>
<path d="M234.002 153.462H261.211H234.002ZM261.756 309.1C261.756 310.603 260.537 311.821 259.035 311.821H236.179C234.676 311.821 233.458 310.603 233.458 309.1H234.546C234.546 310.002 235.277 310.733 236.179 310.733H259.035C259.936 310.733 260.667 310.002 260.667 309.1H261.756ZM236.179 311.821C234.676 311.821 233.458 310.603 233.458 309.1V156.183C233.458 154.68 234.676 153.462 236.179 153.462C235.277 153.462 234.546 154.436 234.546 155.638V309.1C234.546 310.002 235.277 310.733 236.179 310.733V311.821ZM259.035 153.462C260.537 153.462 261.756 154.68 261.756 156.183V309.1C261.756 310.603 260.537 311.821 259.035 311.821V310.733C259.936 310.733 260.667 310.002 260.667 309.1V155.638C260.667 154.436 259.936 153.462 259.035 153.462Z" fill="#EC577D"/>
<path d="M288.421 155.638C288.421 154.436 289.396 153.462 290.598 153.462H313.454C314.656 153.462 315.631 154.436 315.631 155.638V309.1C315.631 310.302 314.656 311.277 313.454 311.277H290.598C289.396 311.277 288.421 310.302 288.421 309.1V155.638Z" fill="#FFF2F5"/>
<path d="M288.421 153.462H315.631H288.421ZM316.175 309.1C316.175 310.603 314.957 311.821 313.454 311.821H290.598C289.095 311.821 287.877 310.603 287.877 309.1H288.965C288.965 310.002 289.696 310.733 290.598 310.733H313.454C314.356 310.733 315.086 310.002 315.086 309.1H316.175ZM290.598 311.821C289.095 311.821 287.877 310.603 287.877 309.1V156.183C287.877 154.68 289.095 153.462 290.598 153.462C289.696 153.462 288.965 154.436 288.965 155.638V309.1C288.965 310.002 289.696 310.733 290.598 310.733V311.821ZM313.454 153.462C314.957 153.462 316.175 154.68 316.175 156.183V309.1C316.175 310.603 314.957 311.821 313.454 311.821V310.733C314.356 310.733 315.086 310.002 315.086 309.1V155.638C315.086 154.436 314.356 153.462 313.454 153.462Z" fill="#EC577D"/>
<path d="M261.211 155.638C261.211 154.436 262.186 153.462 263.388 153.462H286.244C287.446 153.462 288.421 154.436 288.421 155.638V309.1C288.421 310.302 287.446 311.277 286.244 311.277H263.388C262.186 311.277 261.211 310.302 261.211 309.1V155.638Z" fill="#FFF2F5"/>
<path d="M261.211 153.462H288.421H261.211ZM288.965 309.1C288.965 310.603 287.747 311.821 286.244 311.821H263.388C261.885 311.821 260.667 310.603 260.667 309.1H261.756C261.756 310.002 262.487 310.733 263.388 310.733H286.244C287.146 310.733 287.877 310.002 287.877 309.1H288.965ZM263.388 311.821C261.885 311.821 260.667 310.603 260.667 309.1V156.183C260.667 154.68 261.885 153.462 263.388 153.462C262.487 153.462 261.756 154.436 261.756 155.638V309.1C261.756 310.002 262.487 310.733 263.388 310.733V311.821ZM286.244 153.462C287.747 153.462 288.965 154.68 288.965 156.183V309.1C288.965 310.603 287.747 311.821 286.244 311.821V310.733C287.146 310.733 287.877 310.002 287.877 309.1V155.638C287.877 154.436 287.146 153.462 286.244 153.462Z" fill="#EC577D"/>
<rect x="142.578" y="153.462" width="19.5909" height="92.5124" rx="2.17676" fill="#EC577D" stroke="#EC577D" stroke-width="1.08838"/>
<rect x="224.207" y="153.462" width="19.5909" height="92.5124" rx="2.17676" fill="#EC577D" stroke="#EC577D" stroke-width="1.08838"/>
<rect x="170.876" y="153.462" width="19.5909" height="92.5124" rx="2.17676" fill="#EC577D" stroke="#EC577D" stroke-width="1.08838"/>
<rect x="252.504" y="153.462" width="19.5909" height="92.5124" rx="2.17676" fill="#EC577D" stroke="#EC577D" stroke-width="1.08838"/>
<rect x="278.625" y="153.462" width="19.5909" height="92.5124" rx="2.17676" fill="#EC577D" stroke="#EC577D" stroke-width="1.08838"/>
<rect x="8.70703" y="146.931" width="64.2145" height="4.35353" fill="#EB3463"/>
<rect x="72.9216" y="143.666" width="17.4141" height="10.8838" fill="#EC577D"/>
<rect x="90.3357" y="145.843" width="5.44191" height="6.53029" fill="#D9D9D9"/>
<path d="M78.3635 135.503C78.063 135.503 77.8193 135.747 77.8193 136.048C77.8193 136.348 78.063 136.592 78.3635 136.592L78.3635 135.503ZM90.7205 136.432C90.933 136.22 90.933 135.875 90.7205 135.663L87.2573 132.2C87.0448 131.987 86.7002 131.987 86.4877 132.2C86.2752 132.412 86.2752 132.757 86.4877 132.969L89.5661 136.048L86.4877 139.126C86.2752 139.339 86.2752 139.683 86.4877 139.896C86.7002 140.108 87.0448 140.108 87.2573 139.896L90.7205 136.432ZM78.3635 136.592L90.3357 136.592L90.3357 135.503L78.3635 135.503L78.3635 136.592Z" fill="#EC577D"/>
<path d="M28.3251 35.1489H18.7506L19.0401 32.9156H22.3488L23.6309 23.4858L19.8259 23.7133L20.0534 21.8522C22.59 21.2042 24.0996 20.3908 24.5821 19.412H27.105L25.3473 32.9156H28.5732L28.3251 35.1489ZM31.5674 32.6674C31.8982 32.3365 32.298 32.1711 32.7668 32.1711C33.2355 32.1711 33.6353 32.3365 33.9662 32.6674C34.297 32.9983 34.4625 33.3981 34.4625 33.8668C34.4625 34.3355 34.297 34.7353 33.9662 35.0662C33.6353 35.3833 33.2355 35.5418 32.7668 35.5418C32.298 35.5418 31.8982 35.3833 31.5674 35.0662C31.2503 34.7353 31.0917 34.3355 31.0917 33.8668C31.0917 33.3981 31.2503 32.9983 31.5674 32.6674Z" fill="#EC577D"/>
</g>
<rect x="4.35353" y="4.35353" width="309.1" height="309.1" rx="15.2373" stroke="#FDF8E9" stroke-width="8.70705"/>
<defs>
<clipPath id="clip0_210_3">
<rect width="317.807" height="317.807" rx="19.5909" fill="white"/>
</clipPath>
</defs>
</svg>
