<svg width="318" height="318" viewBox="0 0 318 318" fill="none" xmlns="http://www.w3.org/2000/svg">
<rect x="4.55226" y="4.35353" width="309.1" height="309.1" rx="15.2373" fill="#FDCF50"/>
<rect x="4.55226" y="4.35353" width="309.1" height="309.1" rx="15.2373" stroke="#FDF8E9" stroke-width="8.70705"/>
<rect x="81.8271" y="130.606" width="154.55" height="55.5074" rx="11.9722" fill="#EC577D"/>
<path d="M149.86 155.349H146.135C146.067 154.867 145.928 154.439 145.719 154.065C145.509 153.685 145.24 153.362 144.911 153.096C144.582 152.829 144.202 152.625 143.771 152.483C143.346 152.342 142.884 152.271 142.385 152.271C141.484 152.271 140.699 152.495 140.03 152.942C139.361 153.385 138.843 154.031 138.474 154.881C138.106 155.726 137.921 156.752 137.921 157.959C137.921 159.201 138.106 160.244 138.474 161.088C138.848 161.933 139.37 162.571 140.039 163.001C140.708 163.432 141.481 163.648 142.36 163.648C142.853 163.648 143.309 163.583 143.729 163.452C144.154 163.322 144.531 163.132 144.86 162.882C145.189 162.627 145.461 162.318 145.676 161.956C145.897 161.593 146.05 161.179 146.135 160.714L149.86 160.731C149.763 161.53 149.522 162.301 149.137 163.044C148.757 163.781 148.244 164.441 147.598 165.025C146.957 165.603 146.192 166.063 145.302 166.403C144.418 166.737 143.417 166.904 142.3 166.904C140.747 166.904 139.358 166.553 138.134 165.85C136.915 165.147 135.952 164.13 135.243 162.797C134.54 161.465 134.189 159.853 134.189 157.959C134.189 156.06 134.546 154.445 135.26 153.113C135.974 151.78 136.944 150.766 138.168 150.068C139.392 149.366 140.77 149.014 142.3 149.014C143.309 149.014 144.245 149.156 145.106 149.439C145.974 149.723 146.742 150.136 147.411 150.681C148.08 151.219 148.624 151.88 149.043 152.662C149.468 153.444 149.741 154.34 149.86 155.349ZM151.837 152.288V149.252H166.139V152.288H160.807V166.666H157.168V152.288H151.837ZM171.946 149.252L175.458 155.187H175.594L179.123 149.252H183.281L177.966 157.959L183.4 166.666H179.165L175.594 160.723H175.458L171.887 166.666H167.669L173.12 157.959L167.771 149.252H171.946Z" fill="#FFF5D9"/>
<g filter="url(#filter0_d_210_4)">
<path d="M237.265 188.966L241.243 187.6C241.989 187.344 242.018 186.317 241.287 186.032L232.186 182.914C231.501 182.647 230.813 183.307 231.068 183.987L234.048 193.189C234.319 193.914 235.363 193.912 235.642 193.186L237.265 188.966Z" fill="#EC577D"/>
<path d="M228.276 185.94L227.172 187.027M227.056 183.042H225.494M227.172 179.057L228.276 180.144M231.223 177.406V178.943M235.274 179.057L234.169 180.144M237.265 188.966L241.243 187.6C241.989 187.344 242.018 186.317 241.287 186.032L232.186 182.914C231.501 182.647 230.813 183.307 231.068 183.987L234.048 193.189C234.319 193.914 235.363 193.912 235.642 193.186L237.265 188.966Z" stroke="#FFF5D9" stroke-width="1.17545" stroke-linecap="round" stroke-linejoin="round"/>
</g>
<path d="M34.8419 30.4754C34.9246 30.8201 34.9659 31.0958 34.9659 31.3026C34.9659 32.7777 34.6489 33.8048 34.0147 34.3838C33.3943 34.9628 32.5534 35.2523 31.4918 35.2523C30.7336 35.2523 29.8375 35.1282 28.8035 34.8801C27.7696 34.6182 27.0458 34.4872 26.6322 34.4872C26.6046 34.4872 26.5839 34.4872 26.5702 34.4872C25.7292 34.4872 24.9916 34.7078 24.3575 35.1489L23.5923 33.3292H23.5717C23.9025 32.9018 24.5643 32.2469 25.5569 31.3646C26.5495 30.4685 27.1492 29.924 27.356 29.731C27.5765 29.5242 27.8798 29.2622 28.2659 28.9452C28.6519 28.6143 28.9552 28.3455 29.1757 28.1387C29.4101 27.9319 29.6927 27.6493 30.0236 27.2908C30.3545 26.9186 30.6164 26.5739 30.8094 26.2569C31.3884 25.3194 31.6779 24.4646 31.6779 23.6926C31.6779 22.9206 31.478 22.3416 31.0782 21.9556C30.6784 21.5696 30.2235 21.3697 29.7134 21.3559C29.0379 21.3834 28.5278 21.5833 28.1831 21.9556C27.8385 22.3278 27.6593 22.7207 27.6455 23.1343C27.6317 23.5479 27.6593 23.8581 27.7282 24.0649H24.9158C24.7917 22.9068 25.0675 21.928 25.743 21.1284C26.6804 19.9841 28.0384 19.412 29.8168 19.412C31.3057 19.412 32.5189 19.7842 33.4563 20.5287C34.3938 21.2732 34.8625 22.3347 34.8625 23.7133C34.8625 25.023 34.2904 26.3258 33.1462 27.6217C32.7601 28.0491 32.4775 28.3455 32.2983 28.5109C30.9473 29.7654 29.5204 30.9441 28.0177 32.047C28.2796 32.0884 28.8587 32.1987 29.7548 32.3779C30.7198 32.5571 31.3333 32.6467 31.5952 32.6467C32.1604 32.6467 32.5878 32.4606 32.8773 32.0884C33.1806 31.7162 33.4219 31.1785 33.6011 30.4754H34.8419ZM38.341 32.6674C38.6719 32.3365 39.0717 32.1711 39.5404 32.1711C40.0091 32.1711 40.4089 32.3365 40.7398 32.6674C41.0707 32.9983 41.2361 33.3981 41.2361 33.8668C41.2361 34.3355 41.0707 34.7353 40.7398 35.0662C40.4089 35.3833 40.0091 35.5418 39.5404 35.5418C39.0717 35.5418 38.6719 35.3833 38.341 35.0662C38.0239 34.7353 37.8654 34.3355 37.8654 33.8668C37.8654 33.3981 38.0239 32.9983 38.341 32.6674Z" fill="#EC577D"/>
<defs>
<filter id="filter0_d_210_4" x="221.206" y="174.206" width="24.9022" height="24.9022" filterUnits="userSpaceOnUse" color-interpolation-filters="sRGB">
<feFlood flood-opacity="0" result="BackgroundImageFix"/>
<feColorMatrix in="SourceAlpha" type="matrix" values="0 0 0 0 0 0 0 0 0 0 0 0 0 0 0 0 0 0 127 0" result="hardAlpha"/>
<feOffset dy="1.08838"/>
<feGaussianBlur stdDeviation="1.85025"/>
<feComposite in2="hardAlpha" operator="out"/>
<feColorMatrix type="matrix" values="0 0 0 0 0.399323 0 0 0 0 0.298963 0 0 0 0 0.0256771 0 0 0 0.49 0"/>
<feBlend mode="normal" in2="BackgroundImageFix" result="effect1_dropShadow_210_4"/>
<feBlend mode="normal" in="SourceGraphic" in2="effect1_dropShadow_210_4" result="shape"/>
</filter>
</defs>
</svg>
