<svg width="434" height="416" viewBox="0 0 434 416" fill="none" xmlns="http://www.w3.org/2000/svg">
<path d="M413.305 370.773C424.454 378.132 427.603 382.652 430.608 391.281" stroke="#DD4C71" stroke-width="7" stroke-linejoin="round"/>
<path d="M7 108.021C9.56344 90.5039 29.6864 59.5718 89.6708 60.5972C92.9044 56.5057 98.6658 51.2115 106.974 45.9237C125.56 34.0943 156.892 22.2967 201.18 24.0682C211.861 14.8826 240.016 -2.20687 262.062 13.1737C269.111 17.0189 274.879 30.4769 278.724 40.0896C354.274 116.957 433.322 247.898 426.763 249.01C424.567 254.992 185.696 179.398 42.2472 115.07C40.9654 118.275 89.6708 284.898 89.6708 284.898C89.6708 284.898 299.281 368.215 426.763 390.64C426.976 393.417 420.964 403.662 419.072 407.302C411.969 420.971 186.114 357.088 71.0859 306.046L7 108.021Z" fill="#F0CB67"/>
<path d="M7 108.021C9.56344 90.5039 29.6864 59.5718 89.6708 60.5972C92.9044 56.5057 98.6658 51.2115 106.974 45.9237C125.56 34.0943 156.892 22.2967 201.18 24.0682C211.861 14.8826 240.016 -2.20687 262.062 13.1737C269.111 17.0189 274.879 30.4769 278.724 40.0896M7 108.021L71.0859 306.046C186.114 357.088 411.969 420.971 419.072 407.302C420.964 403.662 426.976 393.417 426.763 390.64C299.281 368.215 89.6708 284.898 89.6708 284.898C89.6708 284.898 40.9654 118.275 42.2472 115.07M7 108.021C17.7224 117.52 42.2472 115.07 42.2472 115.07M278.724 40.0896C354.274 116.957 433.322 247.898 426.763 249.01C424.567 254.992 185.696 179.398 42.2472 115.07M278.724 40.0896C265.461 55.0847 242.928 60.4832 214.336 54.8294C175.911 77.9259 151.138 84.5129 102.488 87.4719C86.116 111.046 61.2159 116.805 42.2472 115.07" stroke="#EC577D" stroke-width="13" stroke-linejoin="round"/>
<path d="M46.0922 116.352L11.4858 110.584C29.1917 187.885 42.2059 230.953 70.4449 307.328C202.268 359.553 278.58 381.292 416.509 414.352L428.044 391.281C292.415 356.602 218.28 334.119 90.9524 286.18L46.0922 116.352Z" fill="#F4C64A"/>
<path d="M253.09 342.43L199.258 325.325L144.144 306.687L89.6707 284.898L48.6558 121.479L130.045 152.24L190.286 174.029L244.118 190.546L298.591 209.917L359.472 231.066L421.636 248.369C421.233 301.29 423.497 334.475 425.481 391.921L363.318 376.541L306.281 359.878L253.09 342.43Z" fill="#FFF2F6"/>
<path d="M244.118 190.546C244.118 250.757 240.913 280.907 253.09 342.43M244.118 190.546L298.591 209.917M244.118 190.546L190.286 174.029M253.09 342.43L199.258 325.325M253.09 342.43L306.281 359.878M199.258 325.325C193.49 261.88 190.286 232.347 190.286 174.029M199.258 325.325L144.144 306.687M190.286 174.029L130.045 152.24M130.045 152.24C132.55 214.114 135.556 244.938 144.144 306.687M130.045 152.24L48.6558 121.479L89.6707 284.898L144.144 306.687M298.591 209.917C294.647 266.549 296.242 299.762 306.281 359.878M298.591 209.917L359.472 231.066M306.281 359.878L363.318 376.541M363.318 376.541C354.614 318.727 354.508 286.976 359.472 231.066M363.318 376.541L425.481 391.921C423.497 334.475 421.233 301.29 421.636 248.369L359.472 231.066" stroke="#F0678A" stroke-width="7" stroke-linejoin="round"/>
<path d="M113.382 250.932C107.615 220.812 105.692 191.973 101.847 146.472L142.221 158.226C139.658 199.023 147.989 263.109 147.989 263.109L113.382 250.932Z" fill="#EC4972" stroke="#EC4972" stroke-width="8" stroke-linejoin="round"/>
<path d="M174.264 269.517C169.843 227.819 171.628 206.034 169.778 166.98L208.87 181.72C207.013 221.463 207.099 242.234 211.434 281.053L174.264 269.517Z" fill="#EC4972"/>
<path d="M278.083 303.483C272.956 269.517 274.726 242.678 274.879 203.509L312.69 216.967C310.927 251.432 310.126 274.003 312.69 314.377L278.083 303.483Z" fill="#EC4972"/>
<path d="M344.733 324.631C344.733 324.631 343.271 265.536 344.733 226.58L385.107 236.727C382.543 270.799 381.262 298.356 381.262 335.526L344.733 324.631Z" fill="#EC4972"/>
<path d="M174.264 269.517C169.843 227.819 171.628 206.034 169.778 166.98L208.87 181.72C207.013 221.463 207.099 242.234 211.434 281.053L174.264 269.517Z" stroke="#EC4972" stroke-width="8" stroke-linejoin="round"/>
<path d="M278.083 303.483C272.956 269.517 274.726 242.678 274.879 203.509L312.69 216.967C310.927 251.432 310.126 274.003 312.69 314.377L278.083 303.483Z" stroke="#EC4972" stroke-width="8" stroke-linejoin="round"/>
<path d="M344.733 324.631C344.733 324.631 343.271 265.536 344.733 226.58L385.107 236.727C382.543 270.799 381.262 298.356 381.262 335.526L344.733 324.631Z" stroke="#EC4972" stroke-width="8" stroke-linejoin="round"/>
<path d="M420.354 252.855C245.232 220.274 96.1258 135.007 55.7052 150.958L50.5784 119.556C381.143 241.066 399.19 236.875 420.354 252.855Z" fill="#DF4069" fill-opacity="0.3"/>
<path d="M285.133 40.0898C193.858 65.7931 138.146 77.7761 51.8599 116.352C71.0856 139.423 100.507 109.525 110.819 100.331C155.038 98.408 206.948 78.5414 216.561 67.6468C259.89 75.1919 285.133 59.9565 285.133 40.0898Z" fill="#DF4069" fill-opacity="0.2"/>
<path d="M7.64062 106.739C10.2041 89.2223 29.6863 59.5719 89.6707 60.5972C92.9043 56.5058 98.6657 51.2116 106.974 45.9238C125.56 34.0943 156.892 22.2968 201.18 24.0683C211.861 14.8827 239.375 -2.20691 261.421 13.1737C274.256 20.8395 276.113 29.1885 278.724 40.0897M7.64062 106.739L71.0858 306.046C186.114 357.088 411.969 420.971 419.072 407.302C420.963 403.662 426.976 393.417 426.763 390.64C299.281 368.215 89.6707 284.898 89.6707 284.898L42.2472 115.07M7.64062 106.739C19.1091 115.229 24.8503 118.015 42.2472 115.07M278.724 40.0897C354.274 116.957 433.322 247.898 426.763 249.01C424.567 254.992 185.696 179.398 42.2472 115.07M278.724 40.0897C265.461 55.0847 242.928 60.4833 214.336 54.8295C175.911 77.9259 151.138 84.513 102.488 87.472C86.1159 111.046 61.2158 116.805 42.2472 115.07" stroke="#EC577D" stroke-width="13" stroke-linejoin="round"/>
</svg>
